<svg width="66" height="66" viewBox="0 0 66 66" fill="none" xmlns="http://www.w3.org/2000/svg">
<path d="M25.0557 40.9185V25.084C25.0557 24.5609 25.2291 24.1431 25.5759 23.8304C25.9213 23.5177 26.3249 23.3613 26.7869 23.3613C26.9318 23.3613 27.0832 23.3812 27.241 23.421C27.3973 23.4594 27.5473 23.5184 27.6908 23.598L40.1482 31.5568C40.4126 31.7416 40.6116 31.9533 40.7452 32.1921C40.8773 32.4295 40.9434 32.6988 40.9434 33.0002C40.9434 33.3015 40.8773 33.5708 40.7452 33.8082C40.613 34.0456 40.414 34.2573 40.1482 34.4435L27.6908 42.4023C27.5473 42.4805 27.3959 42.5395 27.2367 42.5793C27.0775 42.6191 26.9262 42.639 26.7826 42.639C26.3192 42.639 25.9156 42.4827 25.5716 42.17C25.2276 41.8573 25.0557 41.4401 25.0557 40.9185Z" fill="#F63A55"/>
</svg>
