<svg width="66" height="66" viewBox="0 0 66 66" fill="none" xmlns="http://www.w3.org/2000/svg">
<path d="M32.9975 39.7953C33.1454 39.7953 33.2892 39.7724 33.4288 39.7266C33.5683 39.6818 33.697 39.6089 33.8147 39.5078C34.4459 38.9245 35.0439 38.3578 35.6084 37.8078C36.173 37.2589 36.6699 36.7209 37.0991 36.1938C37.5282 35.6667 37.872 35.1547 38.1303 34.6578C38.3907 34.1599 38.5209 33.6766 38.5209 33.2078C38.5209 32.338 38.2241 31.6167 37.6303 31.0438C37.0366 30.4709 36.3241 30.1844 35.4928 30.1844C34.9793 30.1844 34.5126 30.2912 34.0928 30.5047C33.673 30.7182 33.3079 30.9865 32.9975 31.3094C32.7267 30.9865 32.3736 30.7182 31.9381 30.5047C31.5027 30.2912 31.047 30.1844 30.5709 30.1844C29.7376 30.1844 29.023 30.4698 28.4272 31.0406C27.8324 31.6115 27.535 32.3302 27.535 33.1969C27.535 33.6688 27.659 34.1568 27.9069 34.661C28.1558 35.1651 28.4949 35.6787 28.9241 36.2016C29.3532 36.7245 29.8491 37.261 30.4116 37.811C30.9741 38.361 31.5647 38.9219 32.1834 39.4938C32.3001 39.6042 32.4277 39.6823 32.5663 39.7281C32.7058 39.7719 32.8496 39.7953 32.9975 39.7953ZM24.585 44.9688C23.8902 44.9688 23.2959 44.7214 22.8022 44.2266C22.3084 43.7318 22.0611 43.1386 22.06 42.4469V30.6813L19.6569 32.5547C19.4715 32.6953 19.2808 32.7495 19.085 32.7172C18.8892 32.6849 18.7209 32.5766 18.5803 32.3922C18.4397 32.2078 18.3824 32.0177 18.4084 31.8219C18.4324 31.625 18.534 31.4563 18.7131 31.3156L31.4444 21.536C31.6777 21.3672 31.9267 21.2406 32.1913 21.1563C32.4558 21.0719 32.7262 21.0302 33.0022 21.0313C33.2782 21.0323 33.5439 21.074 33.7991 21.1563C34.0543 21.2386 34.2949 21.3651 34.5209 21.536L47.2913 31.3172C47.4694 31.4568 47.5699 31.6245 47.5928 31.8203C47.6137 32.0172 47.5543 32.2099 47.4147 32.3985C47.2741 32.5724 47.1058 32.6755 46.91 32.7078C46.7131 32.7391 46.5256 32.6849 46.3475 32.5453L43.935 30.6813V42.4453C43.935 43.1391 43.6876 43.7328 43.1928 44.2266C42.698 44.7203 42.1043 44.9677 41.4116 44.9688H24.585Z" fill="#F63A55"/>
</svg>
