<svg width="66" height="66" viewBox="0 0 66 66" fill="none" xmlns="http://www.w3.org/2000/svg">
<path d="M35.6509 32.971L39.6291 30.2726C39.9978 30.0205 40.1822 29.671 40.1822 29.2241C40.1822 28.7772 39.9978 28.4278 39.6291 28.1757L35.6509 25.4772C35.2301 25.172 34.7963 25.146 34.3494 25.3991C33.9025 25.6512 33.6791 26.0298 33.6791 26.5351V31.9132C33.6791 32.4184 33.9025 32.797 34.3494 33.0491C34.7963 33.3022 35.2301 33.2762 35.6509 32.971ZM23.8056 46.9085C23.1056 46.9981 22.4806 46.8309 21.9306 46.4069C21.3806 45.983 21.064 45.4215 20.9806 44.7226L19.0603 29.546C18.977 28.846 19.1504 28.2127 19.5806 27.646C20.0108 27.0793 20.5754 26.7637 21.2744 26.6991L22.8009 26.5851V37.5772C22.8009 39.1356 23.353 40.4668 24.4572 41.571C25.5614 42.6752 26.8926 43.2272 28.4509 43.2272H42.8025C42.8056 43.5918 42.678 43.9116 42.4197 44.1866C42.1614 44.4616 41.8437 44.6283 41.4666 44.6866L23.8056 46.9085ZM28.4509 40.1022C27.7322 40.1022 27.1317 39.8611 26.6494 39.3788C26.1671 38.8965 25.9265 38.296 25.9275 37.5772V21.5929C25.9275 20.8731 26.1681 20.2726 26.6494 19.7913C27.1306 19.3101 27.7312 19.0689 28.4509 19.0679H44.4353C45.1551 19.0679 45.7556 19.309 46.2369 19.7913C46.7181 20.2736 46.9593 20.8741 46.9603 21.5929V37.5772C46.9603 38.296 46.7192 38.8965 46.2369 39.3788C45.7546 39.8611 45.1541 40.1022 44.4353 40.1022H28.4509Z" fill="#F63A55"/>
</svg>
