<svg width="66" height="66" viewBox="0 0 66 66" fill="none" xmlns="http://www.w3.org/2000/svg">
<path d="M19.2695 44.2988L23.6054 32.252C23.7148 31.9728 23.8763 31.7618 24.0898 31.6191C24.3033 31.4775 24.5361 31.4066 24.7882 31.4066C24.957 31.4066 25.1122 31.4306 25.2539 31.4785C25.3955 31.5264 25.5351 31.6186 25.6726 31.7551L33.4539 39.5363C33.5903 39.6738 33.6825 39.8134 33.7304 39.9551C33.7794 40.0978 33.8039 40.253 33.8039 40.4207C33.8039 40.6738 33.7325 40.9066 33.5898 41.1191C33.4471 41.3316 33.2367 41.4931 32.9585 41.6035L20.9101 45.941C20.657 46.0306 20.4122 46.0452 20.1757 45.9848C19.9403 45.9233 19.7382 45.8087 19.5695 45.641C19.4007 45.4723 19.2861 45.2697 19.2257 45.0332C19.1643 44.7967 19.1789 44.552 19.2695 44.2988ZM46.6101 26.7926C46.4747 26.9467 46.3164 27.0238 46.1351 27.0238C45.9539 27.0238 45.7955 26.9566 45.6601 26.8223L45.5726 26.7363C45.0882 26.2509 44.5127 26.0082 43.846 26.0082C43.1783 26.0082 42.6023 26.2509 42.1179 26.7363L34.2179 34.6348C34.0835 34.7691 33.9252 34.8415 33.7429 34.852C33.5606 34.8624 33.3924 34.79 33.2382 34.6348C33.0841 34.4796 33.007 34.3165 33.007 34.1457C33.007 33.9749 33.0841 33.8113 33.2382 33.6551L41.1382 25.7566C41.8705 25.0233 42.7627 24.6566 43.8148 24.6566C44.8669 24.6566 45.7596 25.0233 46.4929 25.7566L46.6085 25.8738C46.744 26.0082 46.8117 26.1613 46.8117 26.3332C46.8117 26.5051 46.7455 26.6582 46.6101 26.7926ZM28.0523 22.4941C28.2065 22.34 28.3695 22.2629 28.5414 22.2629C28.7132 22.2629 28.8763 22.34 29.0304 22.4941L29.4976 22.9598C30.3309 23.7931 30.7476 24.803 30.7476 25.9895C30.7476 27.1759 30.3309 28.1853 29.4976 29.0176L29.0492 29.466C28.9148 29.6004 28.7565 29.6723 28.5742 29.6816C28.3919 29.691 28.2236 29.6191 28.0695 29.466C27.9153 29.3129 27.8382 29.1493 27.8382 28.9754C27.8382 28.8014 27.9153 28.6384 28.0695 28.4863L28.5179 28.0379C29.0825 27.4733 29.3648 26.7905 29.3648 25.9895C29.3648 25.1884 29.0825 24.5051 28.5179 23.9395L28.0523 23.4738C27.9169 23.3395 27.8445 23.1811 27.8351 22.9988C27.8257 22.8165 27.8981 22.6483 28.0523 22.4941ZM33.7789 20.2098C33.933 20.0556 34.0966 19.9785 34.2695 19.9785C34.4414 19.9785 34.6044 20.0556 34.7585 20.2098L36.4085 21.8598C37.1617 22.6129 37.5382 23.5155 37.5382 24.5676C37.5382 25.6197 37.1617 26.5217 36.4085 27.2738L31.6335 32.0504C31.4992 32.1837 31.3408 32.2556 31.1585 32.266C30.9763 32.2764 30.808 32.2046 30.6539 32.0504C30.4997 31.8962 30.4226 31.7327 30.4226 31.5598C30.4226 31.3868 30.4997 31.2238 30.6539 31.0707L35.4289 26.2957C35.9132 25.8103 36.1554 25.2342 36.1554 24.5676C36.1554 23.9009 35.9132 23.3249 35.4289 22.8395L33.7789 21.191C33.6445 21.0556 33.5726 20.8973 33.5632 20.716C33.5528 20.5337 33.6247 20.3639 33.7789 20.2098ZM43.5132 37.2176C43.3601 37.3717 43.1976 37.4488 43.0257 37.4488C42.8528 37.4488 42.6893 37.3717 42.5351 37.2176L41.7867 36.4691C41.2023 35.8848 40.496 35.5926 39.6679 35.5926C38.8398 35.5926 38.1341 35.8848 37.5507 36.4691L36.8007 37.2176C36.6674 37.352 36.5096 37.4243 36.3273 37.4348C36.145 37.4452 35.9768 37.3728 35.8226 37.2176C35.6684 37.0624 35.5914 36.8993 35.5914 36.7285C35.5914 36.5577 35.6684 36.3941 35.8226 36.2379L36.571 35.4895C37.4242 34.6363 38.4565 34.2098 39.6679 34.2098C40.8794 34.2098 41.9122 34.6368 42.7664 35.491L43.5148 36.2379C43.6492 36.3723 43.721 36.5306 43.7304 36.7129C43.7398 36.8952 43.6679 37.0634 43.5148 37.2176" fill="#F63A55"/>
</svg>
