<svg width="66" height="66" viewBox="0 0 66 66" fill="none" xmlns="http://www.w3.org/2000/svg">
<path d="M32.1293 43.9375H19.5684C19.3465 43.9375 19.1611 43.8625 19.0121 43.7125C18.8632 43.5625 18.7882 43.3766 18.7871 43.1547C18.7861 42.9328 18.8611 42.7474 19.0121 42.5984C19.1632 42.4495 19.3486 42.375 19.5684 42.375H32.1293C32.3501 42.375 32.5356 42.45 32.6856 42.6C32.8356 42.75 32.9106 42.9359 32.9106 43.1578C32.9106 43.3797 32.8356 43.5651 32.6856 43.7141C32.5356 43.863 32.3501 43.9375 32.1293 43.9375ZM22.8746 40.2125C22.1548 40.2125 21.5543 39.9714 21.0731 39.4891C20.5918 39.0068 20.3507 38.4063 20.3496 37.6875V24.5875C20.3496 23.8677 20.5908 23.2672 21.0731 22.7859C21.5553 22.3047 22.1559 22.0635 22.8746 22.0625H42.8262C43.3647 22.0625 43.8397 22.2083 44.2512 22.5C44.6626 22.7917 44.9491 23.1667 45.1106 23.625H38.5293C36.9387 23.625 35.6043 24.1641 34.5262 25.2422C33.4481 26.3203 32.909 27.6542 32.909 29.2437V38.95C32.909 39.3073 32.7882 39.6068 32.5465 39.8484C32.3048 40.0901 32.0053 40.2115 31.6481 40.2125H22.8746ZM39.1293 43.9375C38.6043 43.9375 38.1574 43.7536 37.7887 43.3859C37.421 43.0172 37.2371 42.5703 37.2371 42.0453V29.8437C37.2371 29.3125 37.421 28.8646 37.7887 28.5C38.1564 28.1333 38.6033 27.95 39.1293 27.95H45.3137C45.8491 27.95 46.2991 28.1328 46.6637 28.4984C47.0293 28.8641 47.2121 29.312 47.2121 29.8422V42.0422C47.2121 42.5682 47.0298 43.0156 46.6652 43.3844C46.2996 43.7521 45.8491 43.9359 45.3137 43.9359L39.1293 43.9375ZM42.2199 33.7812C42.522 33.7812 42.7736 33.6771 42.9746 33.4688C43.1757 33.2583 43.2762 33.0135 43.2762 32.7344C43.2762 32.4323 43.1757 32.1807 42.9746 31.9797C42.7736 31.7786 42.5194 31.6781 42.2121 31.6781C41.9277 31.6781 41.6835 31.7786 41.4793 31.9797C41.2751 32.1807 41.1731 32.4349 41.1731 32.7422C41.1731 33.0266 41.2772 33.2708 41.4856 33.475C41.6949 33.6792 41.9397 33.7812 42.2199 33.7812Z" fill="#F63A55"/>
</svg>
