<svg width="66" height="66" viewBox="0 0 66 66" fill="none" xmlns="http://www.w3.org/2000/svg">
<path d="M33 28.1613C32.7313 27.828 32.3833 27.566 31.9563 27.3754C31.5302 27.1868 31.0771 27.0926 30.5969 27.0926C29.8094 27.0926 29.1318 27.3801 28.5641 27.9551C27.9964 28.5301 27.7125 29.2155 27.7125 30.0113C27.7125 30.4311 27.7688 30.8191 27.8813 31.1754C27.9948 31.5327 28.2427 31.9473 28.625 32.4191C28.9375 32.8254 29.3719 33.3098 29.9281 33.8723C30.4854 34.4348 31.2026 35.116 32.0797 35.916C32.2151 36.0493 32.3609 36.14 32.5172 36.1879C32.6734 36.2358 32.8349 36.2598 33.0016 36.2598C33.1682 36.2598 33.3297 36.2358 33.4859 36.1879C33.6422 36.14 33.788 36.0483 33.9234 35.9129C34.7922 35.1212 35.4969 34.4509 36.0375 33.902C36.5792 33.354 37.0094 32.8749 37.3281 32.4645C37.7156 31.9874 37.9724 31.566 38.0984 31.2004C38.2245 30.8348 38.2875 30.4415 38.2875 30.0207C38.2875 29.2228 38.0026 28.5353 37.4328 27.9582C36.862 27.3811 36.1818 27.0926 35.3922 27.0926C34.9266 27.0926 34.4781 27.1874 34.0469 27.377C33.6146 27.5665 33.2656 27.828 33 28.1613ZM33 41.7254L27.1578 44.2379C26.3172 44.6004 25.5182 44.5327 24.7609 44.0348C24.0036 43.54 23.625 42.8379 23.625 41.9285V24.0582C23.625 23.3384 23.8661 22.7379 24.3484 22.2566C24.8307 21.7754 25.4313 21.5342 26.15 21.5332H39.8516C40.5703 21.5332 41.1708 21.7743 41.6531 22.2566C42.1354 22.7389 42.376 23.3395 42.375 24.0582V41.927C42.375 42.8363 41.9964 43.5395 41.2391 44.0363C40.4818 44.5332 39.6823 44.6004 38.8406 44.2379L33 41.7254Z" fill="#F63A55"/>
</svg>
