<svg width="66" height="66" viewBox="0 0 66 66" fill="none" xmlns="http://www.w3.org/2000/svg">
<path d="M22.4231 33.4839V47.0322C22.4231 47.3071 22.3308 47.5368 22.1462 47.7213C21.9615 47.9058 21.7327 47.9987 21.4596 48C21.1865 48.0013 20.9583 47.9084 20.775 47.7213C20.5917 47.5342 20.5 47.3045 20.5 47.0322V19.5639C20.5 19.1213 20.6487 18.7497 20.9462 18.449C21.2436 18.1484 21.6128 17.9987 22.0538 18H33.0404C33.4122 18 33.7442 18.1142 34.0365 18.3426C34.3288 18.571 34.5109 18.8742 34.5827 19.2523L35.1019 21.871H43.9481C44.3878 21.871 44.7564 22.0194 45.0538 22.3161C45.3513 22.6129 45.5 22.9806 45.5 23.4194V35.8064C45.5 36.2452 45.3513 36.6129 45.0538 36.9097C44.7564 37.2064 44.3872 37.3548 43.9462 37.3548H36.8077C36.4359 37.3548 36.1038 37.2406 35.8115 37.0123C35.5192 36.7839 35.3372 36.4806 35.2654 36.1026L34.7442 33.4839H22.4231Z" fill="#F63A55"/>
</svg>
