<svg width="66" height="66" viewBox="0 0 66 66" fill="none" xmlns="http://www.w3.org/2000/svg">
<path d="M43.4564 32.9998C43.4564 30.8582 42.8783 28.9056 41.7221 27.142C40.5669 25.3785 39.0158 24.0639 37.0689 23.1983C36.8585 23.0962 36.7023 22.9514 36.6002 22.7639C36.4981 22.5764 36.4919 22.3879 36.5814 22.1983C36.6783 21.9816 36.8434 21.842 37.0768 21.7795C37.3101 21.717 37.5445 21.7373 37.7799 21.8405C39.9663 22.8602 41.7195 24.367 43.0393 26.3608C44.359 28.3545 45.0189 30.5675 45.0189 32.9998C45.0189 35.4321 44.359 37.6451 43.0393 39.6389C41.7195 41.6326 39.9663 43.1394 37.7799 44.1592C37.5445 44.2623 37.3101 44.2826 37.0768 44.2201C36.8434 44.1576 36.6783 44.0186 36.5814 43.803C36.4919 43.6123 36.4981 43.4233 36.6002 43.2358C36.7023 43.0483 36.8585 42.9035 37.0689 42.8014C39.0158 41.9368 40.5674 40.6222 41.7236 38.8576C42.8799 37.0931 43.458 35.1405 43.458 32.9998M26.3283 36.1639H22.2439C21.8804 36.1639 21.5794 36.0441 21.3408 35.8045C21.1023 35.5649 20.9825 35.2639 20.9814 34.9014V31.1764C20.9814 30.8129 21.1012 30.5118 21.3408 30.2733C21.5804 30.0347 21.8814 29.9149 22.2439 29.9139H26.3283L30.5236 25.7186C30.7778 25.4644 31.0736 25.404 31.4111 25.5373C31.7486 25.6707 31.9174 25.9186 31.9174 26.2811V39.7967C31.9174 40.1592 31.7486 40.4071 31.4111 40.5405C31.0736 40.6738 30.7778 40.6134 30.5236 40.3592L26.3283 36.1639ZM38.9486 33.0389C38.9486 33.8931 38.7913 34.703 38.4768 35.4686C38.1622 36.2352 37.7215 36.9009 37.1549 37.4655C36.9747 37.6009 36.7778 37.6222 36.5643 37.5295C36.3507 37.4368 36.2439 37.2743 36.2439 37.042V28.9592C36.2439 28.7269 36.3507 28.5639 36.5643 28.4701C36.7778 28.3764 36.9742 28.3977 37.1533 28.5342C37.721 29.105 38.1622 29.7852 38.4768 30.5748C38.7913 31.3644 38.9476 32.1858 38.9486 33.0389Z" fill="#F63A55"/>
</svg>
