<svg width="66" height="66" viewBox="0 0 66 66" fill="none" xmlns="http://www.w3.org/2000/svg">
<path d="M30.1097 48.9608C30.3523 48.7182 30.4663 48.4514 30.4515 48.1602C30.4383 47.8691 30.3244 47.6162 30.1097 47.4016L22.5362 39.8302H43.4086C44.3967 39.8302 45.2377 39.4832 45.9317 38.7892C46.6257 38.0952 46.9727 37.255 46.9727 36.2684V17.7756C46.9727 17.4624 46.8675 17.2 46.6573 16.9882C46.447 16.7765 46.1846 16.6714 45.8699 16.6729C45.5553 16.6743 45.2928 16.7795 45.0826 16.9882C44.8723 17.197 44.7672 17.4595 44.7672 17.7756V36.2684C44.7672 36.6639 44.64 36.9888 44.3857 37.2432C44.1313 37.4976 43.8056 37.6247 43.4086 37.6247H22.5384L30.1207 30.0424C30.3648 29.7983 30.4846 29.5381 30.4802 29.2616C30.4758 28.9837 30.356 28.7235 30.1207 28.4809C29.8781 28.2383 29.6113 28.1214 29.3201 28.1302C29.029 28.1391 28.7761 28.2515 28.5615 28.4677L19.5478 37.4814C19.3566 37.6725 19.2221 37.8688 19.1442 38.0702C19.0662 38.2717 19.0273 38.4908 19.0273 38.7275C19.0273 38.9642 19.0662 39.1833 19.1442 39.3847C19.2221 39.5861 19.3566 39.7832 19.5478 39.9758L28.535 48.9608C28.7791 49.2049 29.0415 49.3269 29.3224 49.3269C29.6032 49.3269 29.8656 49.2049 30.1097 48.9608Z" fill="#F63A55"/>
</svg>
