<svg width="66" height="66" viewBox="0 0 66 66" fill="none" xmlns="http://www.w3.org/2000/svg">
<path d="M35.8903 48.9608C35.6477 48.7182 35.5337 48.4514 35.5485 48.1602C35.5617 47.8691 35.6756 47.6162 35.8903 47.4016L43.4638 39.8302H22.5914C21.6033 39.8302 20.7623 39.4832 20.0683 38.7892C19.3743 38.0952 19.0273 37.255 19.0273 36.2684V17.7756C19.0273 17.4624 19.1325 17.2 19.3427 16.9882C19.553 16.7765 19.8154 16.6714 20.1301 16.6729C20.4447 16.6743 20.7072 16.7795 20.9174 16.9882C21.1277 17.197 21.2328 17.4595 21.2328 17.7756V36.2684C21.2328 36.6639 21.36 36.9888 21.6143 37.2432C21.8687 37.4976 22.1944 37.6247 22.5914 37.6247H43.4616L35.8793 30.0424C35.6352 29.7983 35.5154 29.5381 35.5198 29.2616C35.5242 28.9837 35.644 28.7235 35.8793 28.4809C36.1219 28.2383 36.3887 28.1214 36.6799 28.1302C36.971 28.1391 37.2239 28.2515 37.4385 28.4677L46.4522 37.4814C46.6434 37.6725 46.7779 37.8688 46.8558 38.0702C46.9338 38.2717 46.9727 38.4908 46.9727 38.7275C46.9727 38.9642 46.9338 39.1833 46.8558 39.3847C46.7779 39.5861 46.6434 39.7832 46.4522 39.9758L37.465 48.9608C37.2209 49.2049 36.9585 49.3269 36.6776 49.3269C36.3968 49.3269 36.1344 49.2049 35.8903 48.9608Z" fill="#F63A55"/>
</svg>
